<?xml version="1.0" encoding="UTF-8" standalone="no"?>
<svg
   xmlns:dc="http://purl.org/dc/elements/1.1/"
   xmlns:cc="http://creativecommons.org/ns#"
   xmlns:rdf="http://www.w3.org/1999/02/22-rdf-syntax-ns#"
   xmlns:svg="http://www.w3.org/2000/svg"
   xmlns="http://www.w3.org/2000/svg"
   xmlns:sodipodi="http://sodipodi.sourceforge.net/DTD/sodipodi-0.dtd"
   xmlns:inkscape="http://www.inkscape.org/namespaces/inkscape"
   id="Layer_1_1_"
   style="enable-background:new 0 0 64 64;"
   version="1.1"
   viewBox="0 0 64 64"
   xml:space="preserve"
   sodipodi:docname="chip_tree.svg"
   inkscape:version="0.92.4 (5da689c313, 2019-01-14)"><metadata
     id="metadata53"><rdf:RDF><cc:Work
         rdf:about=""><dc:format>image/svg+xml</dc:format><dc:type
           rdf:resource="http://purl.org/dc/dcmitype/StillImage" /><dc:title></dc:title></cc:Work></rdf:RDF></metadata><defs
     id="defs51" /><sodipodi:namedview
     pagecolor="#ffffff"
     bordercolor="#666666"
     borderopacity="1"
     objecttolerance="10"
     gridtolerance="10"
     guidetolerance="10"
     inkscape:pageopacity="0"
     inkscape:pageshadow="2"
     inkscape:window-width="1920"
     inkscape:window-height="1017"
     id="namedview49"
     showgrid="false"
     inkscape:zoom="13.25"
     inkscape:cx="13.056604"
     inkscape:cy="32"
     inkscape:window-x="1912"
     inkscape:window-y="-8"
     inkscape:window-maximized="1"
     inkscape:current-layer="Layer_1_1_" /><g
     id="g867"><g
       id="g38"><path
         d="m 20,1 c -1.654,0 -3,1.346 -3,3 0,1.302 0.839,2.402 2,2.816 V 12 h 2 V 6.816 C 22.161,6.402 23,5.302 23,4 23,2.346 21.654,1 20,1 Z m 0,4 c -0.552,0 -1,-0.448 -1,-1 0,-0.552 0.448,-1 1,-1 0.552,0 1,0.448 1,1 0,0.552 -0.448,1 -1,1 z"
         style="fill:#4d4d4d"
         id="path6"
         inkscape:connector-curvature="0" /><path
         d="m 28,1 c -1.654,0 -3,1.346 -3,3 0,1.302 0.839,2.402 2,2.816 V 12 h 2 V 6.816 C 30.161,6.402 31,5.302 31,4 31,2.346 29.654,1 28,1 Z m 0,4 c -0.552,0 -1,-0.448 -1,-1 0,-0.552 0.448,-1 1,-1 0.552,0 1,0.448 1,1 0,0.552 -0.448,1 -1,1 z"
         style="fill:#4d4d4d"
         id="path8"
         inkscape:connector-curvature="0" /><path
         d="m 36,1 c -1.654,0 -3,1.346 -3,3 0,1.302 0.839,2.402 2,2.816 V 12 h 2 V 6.816 C 38.161,6.402 39,5.302 39,4 39,2.346 37.654,1 36,1 Z m 0,4 c -0.552,0 -1,-0.448 -1,-1 0,-0.552 0.448,-1 1,-1 0.552,0 1,0.448 1,1 0,0.552 -0.448,1 -1,1 z"
         style="fill:#4d4d4d"
         id="path10"
         inkscape:connector-curvature="0" /><path
         d="m 44,1 c -1.654,0 -3,1.346 -3,3 0,1.302 0.839,2.402 2,2.816 V 12 h 2 V 6.816 C 46.161,6.402 47,5.302 47,4 47,2.346 45.654,1 44,1 Z m 0,4 c -0.552,0 -1,-0.448 -1,-1 0,-0.552 0.448,-1 1,-1 0.552,0 1,0.448 1,1 0,0.552 -0.448,1 -1,1 z"
         style="fill:#4d4d4d"
         id="path12"
         inkscape:connector-curvature="0" /><path
         d="m 4,41 c -1.654,0 -3,1.346 -3,3 0,1.654 1.346,3 3,3 1.302,0 2.402,-0.839 2.816,-2 H 11 V 43 H 6.816 C 6.402,41.839 5.302,41 4,41 Z m 0,4 c -0.552,0 -1,-0.448 -1,-1 0,-0.552 0.448,-1 1,-1 0.552,0 1,0.448 1,1 0,0.552 -0.448,1 -1,1 z"
         style="fill:#4d4d4d"
         id="path14"
         inkscape:connector-curvature="0" /><path
         d="m 4,33 c -1.654,0 -3,1.346 -3,3 0,1.654 1.346,3 3,3 1.302,0 2.402,-0.839 2.816,-2 H 11 V 35 H 6.816 C 6.402,33.839 5.302,33 4,33 Z m 0,4 c -0.552,0 -1,-0.448 -1,-1 0,-0.552 0.448,-1 1,-1 0.552,0 1,0.448 1,1 0,0.552 -0.448,1 -1,1 z"
         style="fill:#4d4d4d"
         id="path16"
         inkscape:connector-curvature="0" /><path
         d="m 4,25 c -1.654,0 -3,1.346 -3,3 0,1.654 1.346,3 3,3 1.302,0 2.402,-0.839 2.816,-2 H 11 V 27 H 6.816 C 6.402,25.839 5.302,25 4,25 Z m 0,4 c -0.552,0 -1,-0.448 -1,-1 0,-0.552 0.448,-1 1,-1 0.552,0 1,0.448 1,1 0,0.552 -0.448,1 -1,1 z"
         style="fill:#4d4d4d"
         id="path18"
         inkscape:connector-curvature="0" /><path
         d="m 4,17 c -1.654,0 -3,1.346 -3,3 0,1.654 1.346,3 3,3 1.302,0 2.402,-0.839 2.816,-2 H 11 V 19 H 6.816 C 6.402,17.839 5.302,17 4,17 Z m 0,4 c -0.552,0 -1,-0.448 -1,-1 0,-0.552 0.448,-1 1,-1 0.552,0 1,0.448 1,1 0,0.552 -0.448,1 -1,1 z"
         style="fill:#4d4d4d"
         id="path20"
         inkscape:connector-curvature="0" /><path
         d="M 45,57.184 V 52 h -2 v 5.184 c -1.161,0.414 -2,1.514 -2,2.816 0,1.654 1.346,3 3,3 1.654,0 3,-1.346 3,-3 0,-1.302 -0.839,-2.402 -2,-2.816 z M 44,61 c -0.552,0 -1,-0.448 -1,-1 0,-0.552 0.448,-1 1,-1 0.552,0 1,0.448 1,1 0,0.552 -0.448,1 -1,1 z"
         style="fill:#4d4d4d"
         id="path22"
         inkscape:connector-curvature="0" /><path
         d="M 37,57.184 V 52 h -2 v 5.184 c -1.161,0.414 -2,1.514 -2,2.816 0,1.654 1.346,3 3,3 1.654,0 3,-1.346 3,-3 0,-1.302 -0.839,-2.402 -2,-2.816 z M 36,61 c -0.552,0 -1,-0.448 -1,-1 0,-0.552 0.448,-1 1,-1 0.552,0 1,0.448 1,1 0,0.552 -0.448,1 -1,1 z"
         style="fill:#4d4d4d"
         id="path24"
         inkscape:connector-curvature="0" /><path
         d="M 29,57.184 V 52 h -2 v 5.184 c -1.161,0.414 -2,1.514 -2,2.816 0,1.654 1.346,3 3,3 1.654,0 3,-1.346 3,-3 0,-1.302 -0.839,-2.402 -2,-2.816 z M 28,61 c -0.552,0 -1,-0.448 -1,-1 0,-0.552 0.448,-1 1,-1 0.552,0 1,0.448 1,1 0,0.552 -0.448,1 -1,1 z"
         style="fill:#4d4d4d"
         id="path26"
         inkscape:connector-curvature="0" /><path
         d="M 21,57.184 V 52 h -2 v 5.184 c -1.161,0.414 -2,1.514 -2,2.816 0,1.654 1.346,3 3,3 1.654,0 3,-1.346 3,-3 0,-1.302 -0.839,-2.402 -2,-2.816 z M 20,61 c -0.552,0 -1,-0.448 -1,-1 0,-0.552 0.448,-1 1,-1 0.552,0 1,0.448 1,1 0,0.552 -0.448,1 -1,1 z"
         style="fill:#4d4d4d"
         id="path28"
         inkscape:connector-curvature="0" /><path
         d="m 60,23 c 1.654,0 3,-1.346 3,-3 0,-1.654 -1.346,-3 -3,-3 -1.302,0 -2.402,0.839 -2.816,2 H 53 v 2 h 4.184 c 0.414,1.161 1.514,2 2.816,2 z m 0,-4 c 0.552,0 1,0.448 1,1 0,0.552 -0.448,1 -1,1 -0.552,0 -1,-0.448 -1,-1 0,-0.552 0.448,-1 1,-1 z"
         style="fill:#4d4d4d"
         id="path30"
         inkscape:connector-curvature="0" /><path
         d="m 60,25 c -1.302,0 -2.402,0.839 -2.816,2 H 53 v 2 h 4.184 c 0.414,1.161 1.514,2 2.816,2 1.654,0 3,-1.346 3,-3 0,-1.654 -1.346,-3 -3,-3 z m 0,4 c -0.552,0 -1,-0.448 -1,-1 0,-0.552 0.448,-1 1,-1 0.552,0 1,0.448 1,1 0,0.552 -0.448,1 -1,1 z"
         style="fill:#4d4d4d"
         id="path32"
         inkscape:connector-curvature="0" /><path
         d="m 60,33 c -1.302,0 -2.402,0.839 -2.816,2 H 53 v 2 h 4.184 c 0.414,1.161 1.514,2 2.816,2 1.654,0 3,-1.346 3,-3 0,-1.654 -1.346,-3 -3,-3 z m 0,4 c -0.552,0 -1,-0.448 -1,-1 0,-0.552 0.448,-1 1,-1 0.552,0 1,0.448 1,1 0,0.552 -0.448,1 -1,1 z"
         style="fill:#4d4d4d"
         id="path34"
         inkscape:connector-curvature="0" /><path
         d="m 60,41 c -1.302,0 -2.402,0.839 -2.816,2 H 53 v 2 h 4.184 c 0.414,1.161 1.514,2 2.816,2 1.654,0 3,-1.346 3,-3 0,-1.654 -1.346,-3 -3,-3 z m 0,4 c -0.552,0 -1,-0.448 -1,-1 0,-0.552 0.448,-1 1,-1 0.552,0 1,0.448 1,1 0,0.552 -0.448,1 -1,1 z"
         style="fill:#4d4d4d"
         id="path36"
         inkscape:connector-curvature="0" /></g><path
       sodipodi:nodetypes="cccccccccccc"
       inkscape:connector-curvature="0"
       id="path42"
       style="fill:#4d4d4d"
       d="M 17.586,12 11,18.586 V 52 H 53 V 12 Z M 51,50 H 13 V 19.414 L 18.414,14 H 51 Z" /><g
       transform="matrix(1.1148604,0,0,1.1327166,-4.0803247,-4.4795817)"
       id="g925"><path
         id="path4"
         d="m 34.384398,38.208719 -0.295012,-3.781525 1.481767,-1.481767 1.079478,-1.079478 1.495177,-1.495177 c -0.107277,-0.03352 -0.207849,-0.07375 -0.308422,-0.120687 -0.04023,-0.02011 -0.08046,-0.04023 -0.120687,-0.06034 -0.04023,-0.02011 -0.07375,-0.04023 -0.113982,-0.06705 -0.167621,-0.107277 -0.315127,-0.234669 -0.449224,-0.375471 -0.02011,-0.02682 -0.04693,-0.05364 -0.06705,-0.07375 -0.03352,-0.04023 -0.06705,-0.08716 -0.100572,-0.127392 -0.02682,-0.03352 -0.04693,-0.06705 -0.07375,-0.107277 -0.09387,-0.147506 -0.167621,-0.308422 -0.227965,-0.476043 v 0 l -2.836143,2.366805 -0.241374,-3.117746 v 0 0 c -0.02011,0.01341 -0.03352,0.02682 -0.05364,0.04023 l -0.301717,0.18103 c -0.02012,0.01341 -0.04023,0.02012 -0.06034,0.03353 -0.02011,0.01341 -0.04023,0.02011 -0.06705,0.02682 -0.02011,0.0067 -0.04023,0.02011 -0.06705,0.02682 -0.02012,0.0067 -0.04023,0.02012 -0.06705,0.02682 -0.04023,0.01341 -0.08716,0.02682 -0.127391,0.04023 -0.02012,0.0067 -0.04693,0.01341 -0.06705,0.02011 -0.04693,0.01341 -0.09387,0.02012 -0.140801,0.03352 -0.02012,0.0067 -0.04693,0.0067 -0.06705,0.01341 -0.07375,0.01341 -0.147507,0.02011 -0.227965,0.02011 -0.03352,0 -0.06034,0 -0.09387,0 -0.07375,0 -0.140802,0 -0.214555,-0.01341 -0.06705,-0.0067 -0.140801,-0.02012 -0.20785,-0.03352 -0.01341,0 -0.02682,-0.0067 -0.04693,-0.0067 -0.194441,-0.04023 -0.388881,-0.107278 -0.563206,-0.201145 -0.03352,-0.02012 -0.06705,-0.04023 -0.100573,-0.06034 0,0 0,0 -0.0067,0 -0.05364,-0.03352 -0.107277,-0.06705 -0.160916,-0.100572 -0.02011,-0.01341 -0.03352,-0.02012 -0.04693,-0.03352 0,0 0,0 0,0 v 0 l -0.241374,3.117746 -0.429109,-0.362061 -2.574656,-2.152251 -0.16762,0.42911 c -0.0067,0.02011 -0.02012,0.04023 -0.03352,0.06034 l -0.100573,0.167621 c -0.01341,0.02011 -0.02682,0.03352 -0.04023,0.05364 L 27.17,29.740517 c -0.02682,0.03353 -0.06034,0.06705 -0.09387,0.100573 -0.02682,0.02682 -0.05364,0.05364 -0.08046,0.07375 -0.02011,0.02012 -0.04023,0.03352 -0.06034,0.04693 -0.0067,0.0067 -0.02011,0.01341 -0.02682,0.02682 -0.174326,0.140802 -0.375471,0.254784 -0.590025,0.335242 v 0 l 1.830418,1.830419 c 0.120687,0.187735 0.288308,0.348651 0.476043,0.476043 l 1.8036,1.803599 -0.295013,3.76141 -0.08716,1.159936 -0.616845,8.045797 h 5.672287 l -0.636959,-8.179893 z"
         class="st0"
         inkscape:connector-curvature="0"
         style="fill:#917c6f;stroke-width:0.06704831" /><path
         id="path6-4"
         d="m 41.337308,37.518121 c -0.02011,0.02011 -0.04023,0.04023 -0.06034,0.06034 -0.690598,0.690598 -1.60916,1.072773 -2.58136,1.072773 -0.140802,0 -0.288308,-0.0067 -0.42911,-0.02682 l -0.06705,0.858218 -0.469338,6.061167 h 4.230748 l -0.476043,-6.108101 z"
         class="st0"
         inkscape:connector-curvature="0"
         style="fill:#917c6f;stroke-width:0.06704831" /><path
         id="path8-0"
         d="m 44.233795,32.82474 c -0.509567,-0.154211 -0.918562,-0.549796 -1.086183,-1.052659 l -0.100572,0.08716 v 0 c -0.03352,0.20785 -0.08716,0.4157 -0.160916,0.616845 -0.167621,0.455928 -0.435814,0.871628 -0.77776,1.206869 0.127391,0.335242 0.207849,0.683893 0.234669,1.045954 z"
         class="st0"
         inkscape:connector-curvature="0"
         style="fill:#008000;stroke-width:0.06704831" /><path
         id="path10-4"
         d="m 48.665688,31.456954 c 0,-1.005724 -0.730826,-1.837123 -1.696322,-1.998039 0.120687,-0.40229 0.100573,-0.844809 -0.08716,-1.247099 -0.107277,-0.241374 -0.268193,-0.442519 -0.455928,-0.603435 0.415699,-0.771055 0.301717,-1.749961 -0.348651,-2.393624 -0.710713,-0.710713 -1.81701,-0.784466 -2.60818,-0.214555 -0.16762,-0.301717 -0.422404,-0.563206 -0.744236,-0.730827 0.08716,0.301718 0.134097,0.62355 0.134097,0.938677 1.294032,0.56991 2.172365,1.863943 2.172365,3.339006 0,0.999019 -0.4157,1.930991 -1.099592,2.601474 l 0.113982,0.335242 c 0.07375,0.214554 0.248078,0.38888 0.469338,0.455928 l 1.501882,0.455929 -3.828458,3.828458 0.19444,2.467378 c 0.234669,-0.0067 0.476043,-0.06034 0.704007,-0.160916 0.241374,-0.107277 0.442519,-0.268193 0.603435,-0.455929 0.771055,0.4157 1.749961,0.301718 2.400329,-0.348651 0.710712,-0.710712 0.784465,-1.817009 0.214555,-2.608179 0.368766,-0.201145 0.663778,-0.522977 0.817989,-0.945381 0.09387,-0.248079 0.127392,-0.502863 0.107277,-0.750941 0.824695,-0.268194 1.434834,-1.045954 1.434834,-1.964516 z"
         class="st0"
         inkscape:connector-curvature="0"
         style="fill:#008000;stroke-width:0.06704831" /><path
         id="path12-9"
         d="m 22.141377,34.688683 c 0.02011,-0.268193 0.07375,-0.529682 0.154211,-0.79117 -0.113982,-0.147507 -0.20785,-0.301718 -0.295013,-0.469338 -0.02011,-0.04023 -0.04693,-0.09387 -0.06705,-0.140802 -0.187735,-0.408995 -0.288308,-0.851513 -0.301717,-1.294032 l -0.335242,-0.281603 v 0 l -0.04023,-0.03352 c 0,0 0,0.0067 0,0.0067 -0.140801,0.509568 -0.516272,0.918562 -0.99902,1.106298 z"
         class="st0"
         inkscape:connector-curvature="0"
         style="fill:#008000;stroke-width:0.06704831" /><path
         id="path14-1"
         d="m 26.251438,38.617714 c -0.154211,0.02011 -0.315127,0.03352 -0.469338,0.03352 -0.295012,0 -0.590025,-0.03352 -0.871628,-0.107277 -0.113982,-0.02682 -0.227964,-0.06034 -0.341946,-0.100573 -0.509567,-0.18103 -0.972201,-0.469338 -1.367786,-0.864923 -0.0067,-0.0067 -0.01341,-0.01341 -0.02011,-0.02012 l -0.147507,1.930992 -0.469338,6.061167 h 4.237453 l -0.476043,-6.108101 z"
         class="st0"
         inkscape:connector-curvature="0"
         style="fill:#917c6f;stroke-width:0.06704831" /><path
         id="path16-3"
         d="m 42.108364,31.758672 c 0.0067,-0.02682 0.0067,-0.04693 0.01341,-0.07375 0,-0.0067 0,-0.0067 0,-0.01341 0,0 0,-0.0067 0,-0.0067 0,0 0,-0.0067 0,-0.0067 0.0067,-0.02682 0.0067,-0.05364 0.0067,-0.08046 0.0067,-0.02682 0.0067,-0.05364 0.0067,-0.08716 0,-0.0067 0,-0.01341 0,-0.02011 0,-0.02682 0,-0.05364 0,-0.08716 l 0.657073,-0.543091 c 0,0 0,0 0,0 0,0 0.0067,0 0.0067,0 0.02012,-0.01341 0.04023,-0.02682 0.05364,-0.03352 0.0067,-0.0067 0.02011,-0.01341 0.02682,-0.02012 0.02012,-0.01341 0.03352,-0.02682 0.05364,-0.03352 0.0067,-0.0067 0.02011,-0.01341 0.02682,-0.02012 0.02012,-0.01341 0.04023,-0.02682 0.06034,-0.04693 0.02011,-0.01341 0.04023,-0.03352 0.06034,-0.05364 0.01341,-0.0067 0.02011,-0.02011 0.03352,-0.02682 0.01341,-0.01341 0.03352,-0.02682 0.04693,-0.04023 0.04693,-0.04023 0.09387,-0.08716 0.140802,-0.134097 0.02011,-0.02011 0.04023,-0.04023 0.06034,-0.06705 v 0 c 0,0 0,0 0,0 v 0 0 c 0.02011,-0.02682 0.04693,-0.05364 0.06705,-0.07375 0.0067,-0.0067 0.0067,-0.01341 0.01341,-0.02011 0.05364,-0.06034 0.100572,-0.127392 0.147506,-0.19444 0.02682,-0.03352 0.04693,-0.06705 0.06705,-0.100572 0.02011,-0.03352 0.04023,-0.06034 0.05364,-0.09387 0.0067,-0.0067 0.01341,-0.02012 0.01341,-0.02682 0.01341,-0.02682 0.02682,-0.04693 0.04023,-0.07375 0,0 0.0067,-0.0067 0.0067,-0.0067 0.0067,-0.0067 0.0067,-0.01341 0.01341,-0.02012 0,0 0,0 0,-0.0067 0,0 0.0067,-0.0067 0.0067,-0.0067 0.01341,-0.02011 0.02011,-0.04023 0.03352,-0.06705 0.0067,-0.01341 0.01341,-0.02682 0.02011,-0.04023 0.01341,-0.02682 0.02682,-0.05364 0.03352,-0.08716 0.0067,-0.01341 0.01341,-0.02682 0.02011,-0.04693 0.01341,-0.02682 0.02011,-0.05364 0.03352,-0.08716 0,0 0,0 0,-0.0067 0.01341,-0.03352 0.02011,-0.06034 0.02682,-0.09387 0.01341,-0.04023 0.02011,-0.08046 0.03352,-0.120687 0.0067,-0.03352 0.01341,-0.06034 0.02011,-0.08716 0,-0.01341 0.0067,-0.02012 0.0067,-0.03353 0.0067,-0.02682 0.01341,-0.06034 0.02011,-0.09387 v 0 c 0.0067,-0.04023 0.01341,-0.07375 0.01341,-0.113982 0,-0.02682 0.0067,-0.05364 0.0067,-0.08046 0,0 0,-0.0067 0,-0.01341 0,-0.01341 0.0067,-0.03352 0.0067,-0.04693 0,-0.0067 0,-0.0067 0,-0.01341 0,-0.02012 0,-0.04023 0.0067,-0.05364 0,-0.0067 0,-0.01341 0,-0.02012 0,-0.04023 0,-0.07375 0,-0.113982 0,-1.347671 -0.978905,-2.460673 -2.266233,-2.675227 0.160916,-0.536387 0.134097,-1.126412 -0.120687,-1.676208 -0.147506,-0.321832 -0.362061,-0.59673 -0.610139,-0.811285 0.04023,-0.07375 0.07375,-0.147506 0.107277,-0.227964 0.422404,-0.992315 0.227964,-2.17907 -0.576616,-2.98365 -0.952086,-0.952086 -2.433853,-1.052658 -3.499921,-0.288307 -0.268194,-0.489453 -0.704008,-0.891743 -1.267213,-1.099593 -0.335242,-0.120687 -0.677188,-0.16762 -1.005725,-0.140801 -0.328537,-1.106297 -1.367786,-1.924287 -2.59477,-1.924287 -1.347671,0 -2.467377,0.978906 -2.675227,2.266233 -0.536387,-0.160916 -1.126412,-0.134096 -1.676208,0.120687 -0.321832,0.147506 -0.59673,0.362061 -0.811285,0.61014 -1.032543,-0.556501 -2.339986,-0.40229 -3.211614,0.469338 -0.804579,0.80458 -0.999019,1.99804 -0.576615,2.98365 0.07375,0.174325 0.174326,0.348651 0.288308,0.509567 -0.489453,0.268193 -0.891743,0.704007 -1.099593,1.267213 -0.120687,0.335242 -0.16762,0.677188 -0.140801,1.005725 -1.119707,0.335241 -1.937696,1.37449 -1.937696,2.601474 0,0.04023 0,0.08046 0,0.120687 0,0.04023 0.0067,0.08716 0.0067,0.127392 0,0.02682 0.0067,0.06034 0.0067,0.08716 0,0 0,0.0067 0,0.0067 0,0.01341 0,0.02012 0.0067,0.03353 0.0067,0.06034 0.02012,0.120687 0.02682,0.174325 0,0.01341 0.0067,0.02682 0.0067,0.04693 0.02012,0.07375 0.03353,0.147506 0.06034,0.221259 0.01341,0.04023 0.02682,0.07375 0.04023,0.107278 0.01341,0.03352 0.02682,0.07375 0.04023,0.107277 0.04023,0.107277 0.09387,0.20785 0.147506,0.308422 0.02012,0.03352 0.03352,0.06034 0.05364,0.09387 0,0 0,0.0067 0.0067,0.0067 0.02011,0.03352 0.04023,0.06034 0.06034,0.08716 0.02012,0.03352 0.04693,0.06034 0.06705,0.09387 0.02012,0.02682 0.04693,0.06034 0.06705,0.08716 0,0 0,0 0,0 0.02682,0.03352 0.05364,0.06705 0.08716,0.100572 0,0 0,0 0,0 0,0 0,0 0,0 0.02011,0.02682 0.04023,0.04693 0.06705,0.06705 l 0.0067,0.0067 c 0.0067,0.0067 0.02011,0.02011 0.02682,0.02682 0.01341,0.01341 0.02682,0.02682 0.04023,0.04023 l 0.02012,0.02682 c 0,0 0.0067,0.0067 0.0067,0.0067 0.01341,0.01341 0.02682,0.02682 0.04023,0.03352 0.0067,0.0067 0.01341,0.01341 0.02012,0.02012 0.01341,0.01341 0.02682,0.02682 0.04693,0.04023 0.0067,0.0067 0.02011,0.01341 0.02682,0.02011 0.0067,0.0067 0.01341,0.0067 0.02011,0.01341 0.02012,0.01341 0.04023,0.03352 0.06034,0.04693 0.0067,0 0.0067,0.0067 0.01341,0.01341 0,0 0.0067,0.0067 0.0067,0.0067 0.02682,0.02012 0.05364,0.04023 0.08046,0.06034 0.0067,0.0067 0.02012,0.01341 0.02682,0.02011 0.02682,0.02012 0.04693,0.03352 0.07375,0.04693 0.03352,0.02011 0.06034,0.04023 0.09387,0.06034 0.02011,0.0067 0.03352,0.02012 0.05364,0.02682 0,0 0,0 0,0 v 0 l 0.777761,0.650368 c -0.04023,0.268194 -0.02682,0.549797 0.03352,0.831399 0.01341,0.06034 0.02682,0.113983 0.04023,0.167621 0.0067,0.01341 0.0067,0.02682 0.01341,0.04023 0.0067,0.01341 0.0067,0.02682 0.01341,0.04023 0.0067,0.02012 0.01341,0.04023 0.02012,0.06034 0.01341,0.04023 0.03352,0.08046 0.04693,0.120687 0.0067,0.02011 0.02012,0.04023 0.02682,0.06034 0.01341,0.03352 0.03352,0.06705 0.05364,0.100573 0.147507,0.274898 0.335242,0.516272 0.563206,0.710712 -0.335241,0.616844 -0.408995,1.340966 -0.227964,2.011449 l 0.147506,0.147506 -0.02011,0.22126 c 0.134096,0.301717 0.321832,0.590025 0.56991,0.838103 0.22126,0.22126 0.476043,0.40229 0.744237,0.529682 0.489452,0.234669 1.039248,0.315127 1.56893,0.234669 0.415699,-0.06034 0.824694,-0.221259 1.18005,-0.476043 0.227964,0.4157 0.576616,0.764351 1.019135,0.992315 0.04693,-0.04023 0.08716,-0.08716 0.127391,-0.134096 0.214555,0.120687 0.449224,0.19444 0.690598,0.221259 l 0.274898,-3.499922 -4.820774,-4.820773 1.347672,-0.516272 c 0.382175,-0.147507 0.670483,-0.469338 0.771055,-0.858219 l 0.375471,-1.421424 2.735571,2.279643 0.234669,-3.030584 1.37449,1.052659 c 0.160916,0.120687 0.335242,0.201145 0.529682,0.234669 h 0.0067 c 0.07375,0.01341 0.154211,0.02011 0.234669,0.02011 0.06034,0 0.120687,-0.0067 0.187735,-0.01341 0.214555,-0.03352 0.415699,-0.113983 0.590025,-0.248079 l 1.37449,-1.052659 0.23467,3.030584 2.500901,-2.078498 0.435814,1.300738 c 0.134097,0.38888 0.442519,0.690597 0.838104,0.811284 l 1.501883,0.455929 -2.601475,2.601474 -1.079478,1.079478 -1.173345,1.173345 0.261488,3.345711 0.01341,0.140801 c 0.09387,-0.01341 0.18103,-0.03352 0.268193,-0.06034 0.227964,0 0.462634,-0.03352 0.690598,-0.107277 0.100572,-0.03353 0.201145,-0.06705 0.295012,-0.113983 0.321832,-0.147506 0.59673,-0.36206 0.811285,-0.610139 0.295012,0.160916 0.61014,0.261488 0.931971,0.301717 0.811285,0.107278 1.656094,-0.147506 2.279643,-0.771055 0.268193,-0.268194 0.469338,-0.583321 0.603435,-0.918562 v 0 c 0.03352,-0.07375 0.06034,-0.154211 0.08046,-0.234669 0.234669,-0.784465 0.100572,-1.656094 -0.395585,-2.346691 0.03352,-0.02012 0.07375,-0.04023 0.107277,-0.06705 0.442519,-0.268194 0.797875,-0.683893 0.992315,-1.20687 0.0067,-0.02011 0.01341,-0.04023 0.02011,-0.06705 0,0 0,0 0,0 0.0067,-0.02012 0.01341,-0.04023 0.02011,-0.06705 0.0067,-0.02011 0.01341,-0.04693 0.02011,-0.07375 0.0067,-0.02682 0.01341,-0.05364 0.02012,-0.08046 0.0067,-0.02682 0.01341,-0.05364 0.02011,-0.08046 -0.0067,0 -0.0067,-0.0067 -0.0067,-0.01341 z"
         class="st0"
         inkscape:connector-curvature="0"
         style="fill:#008000;stroke-width:0.06704831" /><path
         id="path18-1"
         d="m 18.560997,32.429155 1.347671,-0.516272 c 0.214555,-0.08046 0.375471,-0.261489 0.429109,-0.476043 l 0.100573,-0.38888 c -0.616845,-0.657074 -0.98561,-1.542112 -0.98561,-2.507607 0,-1.367786 0.77776,-2.614884 1.964515,-3.238434 0.03352,-0.234669 0.09387,-0.469338 0.174326,-0.697302 0.04023,-0.107277 0.08716,-0.214555 0.134096,-0.315127 -0.107277,0.02682 -0.221259,0.06705 -0.328536,0.113982 -0.241374,0.113982 -0.442519,0.268193 -0.603435,0.455929 -0.771056,-0.4157 -1.749961,-0.295013 -2.40033,0.348651 -0.710712,0.710712 -0.784465,1.817009 -0.214554,2.608179 -0.368766,0.201145 -0.663779,0.522977 -0.824694,0.945381 -0.09387,0.248079 -0.127392,0.502862 -0.107278,0.750941 -0.824694,0.254784 -1.434834,1.025839 -1.434834,1.944401 0,1.005725 0.730827,1.843829 1.696323,1.99804 -0.120687,0.40229 -0.100573,0.844809 0.08716,1.247098 0.107278,0.241374 0.268194,0.442519 0.455929,0.603435 -0.4157,0.764351 -0.301717,1.749961 0.348651,2.40033 0.710712,0.710712 1.817009,0.784465 2.608179,0.214554 0.201145,0.368766 0.529682,0.663779 0.945382,0.81799 0.06034,0.02011 0.120687,0.04023 0.18103,0.05364 l 0.201145,-2.56795 v -0.02011 0 l -0.01341,-0.01341 z"
         class="st0"
         inkscape:connector-curvature="0"
         style="fill:#008000;stroke-width:0.06704831" /></g><path
       sodipodi:nodetypes="cccc"
       inkscape:connector-curvature="0"
       id="path983"
       d="M 11,16.586 15.586,12 11.09434,12.07547 Z"
       style="fill:#4d4d4d;fill-opacity:1;stroke:none;stroke-width:1px;stroke-linecap:butt;stroke-linejoin:miter;stroke-opacity:1" /></g></svg>